
<!DOCTYPE svg PUBLIC "-//W3C//DTD SVG 1.1//EN" "http://www.w3.org/Graphics/SVG/1.1/DTD/svg11.dtd">

<!-- Uploaded to: SVG Repo, www.svgrepo.com, Transformed by: SVG Repo Mixer Tools -->
<svg fill="#03b300" version="1.1" id="Capa_1" xmlns="http://www.w3.org/2000/svg" xmlns:xlink="http://www.w3.org/1999/xlink" width="800px" height="800px" viewBox="0 0 32.668 32.668" xml:space="preserve" stroke="#03b300">

<g id="SVGRepo_bgCarrier" stroke-width="0"/>

<g id="SVGRepo_iconCarrier"> <g> <path d="M32.668,14.335h-4.011c-0.854-5.29-5.033-9.468-10.322-10.324v-4.01h-4V4.01C9.045,4.866,4.866,9.044,4.01,14.333H0v4 h4.009c0.855,5.291,5.035,9.473,10.326,10.327v4.007h4v-4.008c5.289-0.856,9.468-5.034,10.322-10.324h4.011V14.335L32.668,14.335z M18.335,26.64v-3.639h-4v3.639c-4.188-0.812-7.494-4.115-8.305-8.307h3.636v-4H6.03c0.812-4.188,4.117-7.491,8.305-8.302v3.636h4 V6.031c4.188,0.812,7.49,4.115,8.304,8.304h-3.638v4h3.638C25.825,22.522,22.521,25.827,18.335,26.64z"/> </g> </g>

</svg>