<svg width="100" height="100" style="transform:scale(0.9)" viewBox="0 0 100 100" fill="none" xmlns="http://www.w3.org/2000/svg"><path fill-rule="evenodd" clip-rule="evenodd" d="M25.3982 48.7773C19.3236 45.1276 15.1936 28.4548 13.8879 20.5747C13.8893 19.9363 13.8938 19.2846 13.9016 18.6215C8.3084 27.1051 5 37.6095 5 48.9833C5 77.1591 25.3031 100 50.3483 100C75.3934 100 95.6965 77.1591 95.6965 48.9833C95.6965 36.7343 91.8594 25.4936 85.4636 16.6995C83.0925 27.4231 77.6266 34.0558 73.0224 37.9924C67.5367 14.5412 47.3277 4.2475 37.7941 0C41.9891 20.3651 32.1531 40.1073 25.3982 48.7773Z" fill="#CE1B1B"></path><path d="M86.311 23.5955C94.4701 42.9161 99.0689 84.7965 52.1909 97.7527C66.5312 92.3542 93.4317 69.965 86.311 23.5955Z" fill="black" fill-opacity="0.1"></path></svg>